<svg id="圖層_1" data-name="圖層 1" xmlns="http://www.w3.org/2000/svg" viewBox="0 0 70 70"><defs><style>.cls-1{fill:none;}.cls-2{fill:#fbaa57;}</style></defs><title>好夜台南_v1</title><polygon class="cls-1" points="38.64 32.02 37.36 32.02 40.16 37.62 42.96 32.02 41.56 32.02 38.64 32.02"/><path class="cls-2" d="M58.12,29.84v-5a4.5,4.5,0,0,1-3.4,1.55H42.85V21H55.6a1.24,1.24,0,0,0,1.24-1.24V13.83a4.5,4.5,0,0,1-3.4,1.55H42.85V10h-5.6v5.39H26.67a4.5,4.5,0,0,1-3.4-1.55v5.91A1.24,1.24,0,0,0,24.51,21H37.26v5.44H25.48a4.5,4.5,0,0,1-3.4-1.55v4.75c-7.47,19.35-10,12.14-10,12.14v5.18a1.87,1.87,0,0,0,1.87,1.87h6.53V60h6.29V45.16a2.5,2.5,0,0,0-2.5-2.5H22.77l4-10.64h5l2.8,5.6H34a3.69,3.69,0,0,1-2.17-.71V42a1.24,1.24,0,0,0,1.24,1.24h4.2V46H34a3.69,3.69,0,0,1-2.17-.71v5.06a1.24,1.24,0,0,0,1.24,1.24h4.2v5.6h5.6v-5.6h4.4a1.24,1.24,0,0,0,1.24-1.24V45.3a3.69,3.69,0,0,1-2.17.71H42.85v-2.8h4.4A1.24,1.24,0,0,0,48.5,42V36.91a3.69,3.69,0,0,1-2.17.71h-.57l2.8-5.6h4.79l4,10.64H55.72a2.5,2.5,0,0,0-2.5,2.5V60h6.42V48.81h6.53A1.87,1.87,0,0,0,68,46.94V41.76S65.52,48.9,58.12,29.84Zm-18,7.78L37.36,32H43Z"/><path class="cls-2" d="M8.84,21a9.76,9.76,0,0,1,6.32-9.13,9.75,9.75,0,1,0,0,18.26A9.76,9.76,0,0,1,8.84,21Z"/></svg>