<svg id="圖層_1" data-name="圖層 1" xmlns="http://www.w3.org/2000/svg" viewBox="0 0 122.6 41"><defs><style>.cls-1{fill:#fbaa57;}.cls-2{fill:none;}</style></defs><title>好夜台南_v1</title><path class="cls-1" d="M49.28,15a10.78,10.78,0,0,0,1.54.13h.3a26.53,26.53,0,0,0,.17-2.65,27.17,27.17,0,0,0,3,.13c.27,0,.4,0,.4.1a.88.88,0,0,1-.3.5q-.12,1-.27,1.91h1.38A8.61,8.61,0,0,0,57,15q-.07,1-.08,2.28A19.69,19.69,0,0,1,55.74,23q.84.82,1.63,1.7a3.33,3.33,0,0,0-.44.54,16.49,16.49,0,0,0,2.12.13c.31,0,.47-.12.47-.37V22.08H58.18a6.87,6.87,0,0,0-1.28.13q.07-1,.07-1.68T56.9,19q.67.07,1.28.07h1.34a5.14,5.14,0,0,0-.17-1.31q.37.07.86.12a8.13,8.13,0,0,0,.49-1.9H58.61q-.55,0-1.48.07.07-1,.07-1.54t-.07-1.58a7.86,7.86,0,0,0,1.48.17h4.67a6.66,6.66,0,0,0,1.48-.17q-.07.77-.07,1.58V15A22.58,22.58,0,0,1,63,19h.64A12.14,12.14,0,0,0,64.93,19q-.07.82-.07,1.58t.07,1.68a5.56,5.56,0,0,0-1.28-.13h-.94v4.23a1.68,1.68,0,0,1-.6,1.41,2.55,2.55,0,0,1-1.76.57H58a10.59,10.59,0,0,0-1.09-3.06,16,16,0,0,0-1.39,2q-.65-.77-1.39-1.49a12.07,12.07,0,0,1-3,2.6A10.74,10.74,0,0,0,49,25.64a5.21,5.21,0,0,0,2.87-1.75A28.28,28.28,0,0,0,49.08,22a25.88,25.88,0,0,0,1.48-3.86l-1.28.07q.07-1,.07-1.61T49.28,15Zm4.18,3.19a17,17,0,0,1-.79,2.38c.21.15.44.31.69.5A17.75,17.75,0,0,0,54,18.15Z"/><path class="cls-1" d="M74,12.44a26.31,26.31,0,0,0,3.49.17c.25,0,.37,0,.37.13a.57.57,0,0,1-.18.35.62.62,0,0,0-.24.39h4.35a13.48,13.48,0,0,0,1.91-.13q-.07.84-.07,1.61t.07,1.65a16.27,16.27,0,0,0-1.91-.1H78.4q-.12.27-.22.47h3.27q.94,0,1.91-.07-.15.72-.37,1.91a16,16,0,0,1-1.53,4.63q-.34.6-.65,1.09a20.54,20.54,0,0,0,3.16.72,11.78,11.78,0,0,0-1.18,3.26,17.93,17.93,0,0,1-4.57-1.64,15.07,15.07,0,0,1-4.1,1.51A8.47,8.47,0,0,0,72.72,26V27a7.88,7.88,0,0,0,.13,1.41q-.91-.07-1.71-.07-.62,0-1.61.07.07-.74.07-1.41V23.54a6.2,6.2,0,0,1-.81.82,26.32,26.32,0,0,0-1-3.46,16.38,16.38,0,0,0,2.79-4.4H69.9q-.86,0-1.91.1.07-.94.07-1.65T68,13.35a14.47,14.47,0,0,0,1.91.13h4.26A7.88,7.88,0,0,0,74,12.44Zm-1.31,8.49a16,16,0,0,0,2.43-4.43H72.32a9,9,0,0,0,1.26.47c.21.06.32.15.32.27s-.12.22-.37.3l-.81,1.56Zm0,4.42a10.52,10.52,0,0,0,2.67-.57q-.45-.55-.92-1.21a3.72,3.72,0,0,1-.34.49l-1.41-1.28ZM76.28,21a5.91,5.91,0,0,0,1.78,2.2,2.23,2.23,0,0,0,.22-.25,1.14,1.14,0,0,0,.17-.17,17.43,17.43,0,0,0-1.9-1.63,7.71,7.71,0,0,0,1-1.41h-.23l-.35,0Q76.62,20.37,76.28,21Zm1.88-1.26a11.12,11.12,0,0,1,1.26.94q.13-.44.25-.94Z"/><path class="cls-1" d="M91.16,12.44q1.23.2,3.16.42c.22,0,.34.11.34.25s-.12.18-.37.3l-1.85,3.32,4.65-.23q-.77-.89-1.63-1.78a14.94,14.94,0,0,0,2.45-1.61,23.12,23.12,0,0,1,4.9,5.64,17.19,17.19,0,0,0-2.72,1.66,8.18,8.18,0,0,0,1.38-.12q-.07.77-.07,1.54v5q0,.77.07,1.54-.81-.07-1.61-.07t-1.58.07q0-.22.05-.44h-7.1c0,.19,0,.35,0,.47q-.77,0-1.58,0t-1.61,0a8.42,8.42,0,0,0,.13-1.51v-5a7.6,7.6,0,0,0-.13-1.54,10.87,10.87,0,0,0,1.61.13H99.86a5.52,5.52,0,0,0-.57-1q-6,.27-11.65.45c-.18.2-.31.3-.4.3s-.18-.1-.2-.3V18.45a9.79,9.79,0,0,0-.13-1.58h1.71A26,26,0,0,0,91.16,12.44ZM91.2,25h7.19V23.32H91.2Z"/><path class="cls-1" d="M105.78,13.55q.86.07,1.64.07h4.63q0-.59-.1-1.24a23.55,23.55,0,0,0,3.34.17q.35,0,.35.13a.55.55,0,0,1-.2.34.67.67,0,0,0-.23.54v.07h4.73q.84,0,1.65-.07,0,.74,0,1.41t0,1.48a9.29,9.29,0,0,0-1.65-.13h-4.73v.5h4.3q.77,0,1.55-.07-.07.7-.07,1.41v8.23q0,1.91-2.06,1.91h-2.54a13,13,0,0,0-.54-2.72,9,9,0,0,0,1.88.2q.37,0,.37-.27v-6H117l-.27.94h.12a6.41,6.41,0,0,0,.91-.07,9.79,9.79,0,0,0-.07,1.11,11.54,11.54,0,0,0,.07,1.21,3.9,3.9,0,0,0-.91-.1h-1.78v.54h1.58a6.87,6.87,0,0,0,1-.07,7,7,0,0,0-.1,1.17,8.64,8.64,0,0,0,.1,1.28,4.22,4.22,0,0,0-1-.1h-1.58V27a9.11,9.11,0,0,0,.1,1.24q-.87-.07-1.58-.07t-1.54.07a11.84,11.84,0,0,0,.07-1.24V25.4h-1.48a5.35,5.35,0,0,0-1,.1,9.13,9.13,0,0,0,.1-1.28,6.77,6.77,0,0,0-.1-1.17,7.35,7.35,0,0,0,1,.07h1.48v-.54h-1.71a4.75,4.75,0,0,0-.87.1q.07-.69.07-1.21a9.48,9.48,0,0,0-.07-1.11,6.45,6.45,0,0,0,.87.07h.15l-.32-.94h-.94v7.45q0,.7.07,1.44-.77,0-1.54,0t-1.55,0a8.05,8.05,0,0,0,.13-1.44v-8.8a6.4,6.4,0,0,0-.13-1.41q.74.07,1.55.07h4.23v-.5h-4.67a11.39,11.39,0,0,0-1.64.13q0-.84,0-1.48T105.78,13.55Zm7.59,6.88H114l.29-.94H113Z"/><polygon class="cls-2" points="23.85 18.64 23.05 18.64 24.8 22.13 26.54 18.64 25.67 18.64 23.85 18.64"/><path class="cls-1" d="M36,17.28V14.19a2.81,2.81,0,0,1-2.12,1H26.47V11.77h7.94a.77.77,0,0,0,.77-.77V7.31a2.81,2.81,0,0,1-2.12,1H26.47V4.93H23V8.28H16.39a2.81,2.81,0,0,1-2.12-1V11a.77.77,0,0,0,.77.77H23v3.39H15.65a2.81,2.81,0,0,1-2.12-1v3C8.88,29.2,7.3,24.71,7.3,24.71v3.23A1.16,1.16,0,0,0,8.46,29.1h4.07v7h3.92V26.83a1.56,1.56,0,0,0-1.56-1.56H14l2.49-6.63h3.11l1.74,3.49H21a2.3,2.3,0,0,1-1.35-.44v3.15a.77.77,0,0,0,.77.77H23v1.74H21a2.3,2.3,0,0,1-1.35-.44v3.15a.77.77,0,0,0,.77.77H23v3.49h3.49V30.85h2.74a.77.77,0,0,0,.77-.77V26.92a2.3,2.3,0,0,1-1.35.44H26.47V25.62h2.74a.77.77,0,0,0,.77-.77V21.69a2.3,2.3,0,0,1-1.35.44h-.36L30,18.64h3l2.49,6.63h-1a1.56,1.56,0,0,0-1.56,1.56v9.24h4v-7H41a1.16,1.16,0,0,0,1.16-1.16V24.71S40.6,29.16,36,17.28ZM24.8,22.13l-1.74-3.49h3.49Z"/><path class="cls-1" d="M5.29,11.77A6.08,6.08,0,0,1,9.22,6.08a6.08,6.08,0,1,0,0,11.38A6.08,6.08,0,0,1,5.29,11.77Z"/></svg>